<svg width="132" height="20" viewBox="0 0 132 20" fill="none" xmlns="http://www.w3.org/2000/svg">
<path d="M19.5664 9.10307C19.7589 8.91683 19.895 8.68015 19.9592 8.42014C20.0233 8.16013 20.013 7.8873 19.9293 7.6329C19.8475 7.37777 19.6954 7.15086 19.4906 6.97817C19.2857 6.80548 19.0364 6.69401 18.7711 6.65653L13.9285 5.95289C13.8269 5.93813 13.7304 5.89888 13.6474 5.83853C13.5644 5.77818 13.4973 5.69853 13.4519 5.60647L11.2869 1.2188C11.1692 0.978182 10.9861 0.775576 10.7586 0.6342C10.5311 0.492823 10.2684 0.418396 10.0005 0.419445C9.73276 0.418471 9.47012 0.492934 9.24269 0.634306C9.01526 0.775678 8.83225 0.978243 8.7146 1.2188L6.5492 5.60687C6.45709 5.79389 6.27848 5.92325 6.07223 5.95329L1.22962 6.65693C0.964332 6.69441 0.714971 6.80588 0.510125 6.97857C0.305279 7.15126 0.153238 7.37817 0.0714312 7.6333C-0.0122765 7.8877 -0.0226385 8.16053 0.0415321 8.42054C0.105703 8.68055 0.241811 8.91723 0.434267 9.10347L3.93807 12.5188C4.08745 12.6645 4.15593 12.8744 4.12069 13.0794L3.2941 17.902C3.2567 18.1069 3.26537 18.3176 3.31946 18.5188C3.37356 18.7199 3.47174 18.9065 3.60687 19.065C4.03379 19.5724 4.77908 19.727 5.375 19.4138L9.70579 17.1367C9.79706 17.0901 9.89807 17.0658 10.0005 17.0658C10.103 17.0658 10.204 17.0901 10.2953 17.1367L14.6265 19.4138C14.8318 19.5234 15.061 19.5807 15.2937 19.5808C15.717 19.5808 16.1183 19.3926 16.3942 19.065C16.5294 18.9065 16.6276 18.7199 16.6817 18.5188C16.7358 18.3176 16.7444 18.1069 16.707 17.902L15.88 13.0794C15.8627 12.9782 15.8703 12.8742 15.9021 12.7766C15.9339 12.6789 15.989 12.5904 16.0626 12.5188L19.5664 9.10307Z" fill="white"/>
<path d="M47.5664 9.10307C47.7589 8.91683 47.895 8.68015 47.9592 8.42014C48.0233 8.16013 48.013 7.8873 47.9293 7.6329C47.8475 7.37777 47.6954 7.15086 47.4906 6.97817C47.2857 6.80548 47.0364 6.69401 46.7711 6.65653L41.9285 5.95289C41.8269 5.93813 41.7304 5.89888 41.6474 5.83853C41.5644 5.77818 41.4973 5.69853 41.4519 5.60647L39.2869 1.2188C39.1692 0.978182 38.9861 0.775576 38.7586 0.6342C38.5311 0.492823 38.2684 0.418396 38.0005 0.419445C37.7328 0.418471 37.4701 0.492934 37.2427 0.634306C37.0153 0.775678 36.8322 0.978243 36.7146 1.2188L34.5492 5.60687C34.4571 5.79389 34.2785 5.92325 34.0722 5.95329L29.2296 6.65693C28.9643 6.69441 28.715 6.80588 28.5101 6.97857C28.3053 7.15126 28.1532 7.37817 28.0714 7.6333C27.9877 7.8877 27.9774 8.16053 28.0415 8.42054C28.1057 8.68055 28.2418 8.91723 28.4343 9.10347L31.9381 12.5188C32.0875 12.6645 32.1559 12.8744 32.1207 13.0794L31.2941 17.902C31.2567 18.1069 31.2654 18.3176 31.3195 18.5188C31.3736 18.7199 31.4717 18.9065 31.6069 19.065C32.0338 19.5724 32.7791 19.727 33.375 19.4138L37.7058 17.1367C37.7971 17.0901 37.8981 17.0658 38.0005 17.0658C38.103 17.0658 38.204 17.0901 38.2953 17.1367L42.6265 19.4138C42.8318 19.5234 43.061 19.5807 43.2937 19.5808C43.717 19.5808 44.1183 19.3926 44.3942 19.065C44.5294 18.9065 44.6276 18.7199 44.6817 18.5188C44.7358 18.3176 44.7444 18.1069 44.707 17.902L43.88 13.0794C43.8627 12.9782 43.8703 12.8742 43.9021 12.7766C43.9339 12.6789 43.989 12.5904 44.0626 12.5188L47.5664 9.10307Z" fill="white"/>
<path d="M75.5664 9.10307C75.7589 8.91683 75.895 8.68015 75.9592 8.42014C76.0233 8.16013 76.013 7.8873 75.9293 7.6329C75.8475 7.37777 75.6954 7.15086 75.4906 6.97817C75.2857 6.80548 75.0364 6.69401 74.7711 6.65653L69.9285 5.95289C69.8269 5.93813 69.7304 5.89888 69.6474 5.83853C69.5644 5.77818 69.4973 5.69853 69.4519 5.60647L67.2869 1.2188C67.1692 0.978182 66.9861 0.775576 66.7586 0.6342C66.5311 0.492823 66.2684 0.418396 66.0005 0.419445C65.7328 0.418471 65.4701 0.492934 65.2427 0.634306C65.0153 0.775678 64.8322 0.978243 64.7146 1.2188L62.5492 5.60687C62.4571 5.79389 62.2785 5.92325 62.0722 5.95329L57.2296 6.65693C56.9643 6.69441 56.715 6.80588 56.5101 6.97857C56.3053 7.15126 56.1532 7.37817 56.0714 7.6333C55.9877 7.8877 55.9774 8.16053 56.0415 8.42054C56.1057 8.68055 56.2418 8.91723 56.4343 9.10347L59.9381 12.5188C60.0875 12.6645 60.1559 12.8744 60.1207 13.0794L59.2941 17.902C59.2567 18.1069 59.2654 18.3176 59.3195 18.5188C59.3736 18.7199 59.4717 18.9065 59.6069 19.065C60.0338 19.5724 60.7791 19.727 61.375 19.4138L65.7058 17.1367C65.7971 17.0901 65.8981 17.0658 66.0005 17.0658C66.103 17.0658 66.204 17.0901 66.2953 17.1367L70.6265 19.4138C70.8318 19.5234 71.061 19.5807 71.2937 19.5808C71.717 19.5808 72.1183 19.3926 72.3942 19.065C72.5294 18.9065 72.6276 18.7199 72.6817 18.5188C72.7358 18.3176 72.7444 18.1069 72.707 17.902L71.88 13.0794C71.8627 12.9782 71.8703 12.8742 71.9021 12.7766C71.9339 12.6789 71.989 12.5904 72.0626 12.5188L75.5664 9.10307Z" fill="white"/>
<path d="M103.566 9.10307C103.759 8.91683 103.895 8.68015 103.959 8.42014C104.023 8.16013 104.013 7.8873 103.929 7.6329C103.847 7.37777 103.695 7.15086 103.491 6.97817C103.286 6.80548 103.036 6.69401 102.771 6.65653L97.9285 5.95289C97.8269 5.93813 97.7304 5.89888 97.6474 5.83853C97.5644 5.77818 97.4973 5.69853 97.4519 5.60647L95.2869 1.2188C95.1692 0.978182 94.9861 0.775576 94.7586 0.6342C94.5311 0.492823 94.2684 0.418396 94.0005 0.419445C93.7328 0.418471 93.4701 0.492934 93.2427 0.634306C93.0153 0.775678 92.8322 0.978243 92.7146 1.2188L90.5492 5.60687C90.4571 5.79389 90.2785 5.92325 90.0722 5.95329L85.2296 6.65693C84.9643 6.69441 84.715 6.80588 84.5101 6.97857C84.3053 7.15126 84.1532 7.37817 84.0714 7.6333C83.9877 7.8877 83.9774 8.16053 84.0415 8.42054C84.1057 8.68055 84.2418 8.91723 84.4343 9.10347L87.9381 12.5188C88.0875 12.6645 88.1559 12.8744 88.1207 13.0794L87.2941 17.902C87.2567 18.1069 87.2654 18.3176 87.3195 18.5188C87.3736 18.7199 87.4717 18.9065 87.6069 19.065C88.0338 19.5724 88.7791 19.727 89.375 19.4138L93.7058 17.1367C93.7971 17.0901 93.8981 17.0658 94.0005 17.0658C94.103 17.0658 94.204 17.0901 94.2953 17.1367L98.6265 19.4138C98.8318 19.5234 99.061 19.5807 99.2937 19.5808C99.717 19.5808 100.118 19.3926 100.394 19.065C100.529 18.9065 100.628 18.7199 100.682 18.5188C100.736 18.3176 100.744 18.1069 100.707 17.902L99.88 13.0794C99.8627 12.9782 99.8703 12.8742 99.9021 12.7766C99.9339 12.6789 99.989 12.5904 100.063 12.5188L103.566 9.10307Z" fill="white"/>
<path d="M131.566 9.10307C131.759 8.91683 131.895 8.68015 131.959 8.42014C132.023 8.16013 132.013 7.8873 131.929 7.6329C131.847 7.37777 131.695 7.15086 131.491 6.97817C131.286 6.80548 131.036 6.69401 130.771 6.65653L125.928 5.95289C125.827 5.93813 125.73 5.89888 125.647 5.83853C125.564 5.77818 125.497 5.69853 125.452 5.60647L123.287 1.2188C123.169 0.978182 122.986 0.775576 122.759 0.6342C122.531 0.492823 122.268 0.418396 122.001 0.419445C121.733 0.418471 121.47 0.492934 121.243 0.634306C121.015 0.775678 120.832 0.978243 120.715 1.2188L118.549 5.60687C118.457 5.79389 118.278 5.92325 118.072 5.95329L113.23 6.65693C112.964 6.69441 112.715 6.80588 112.51 6.97857C112.305 7.15126 112.153 7.37817 112.071 7.6333C111.988 7.8877 111.977 8.16053 112.042 8.42054C112.106 8.68055 112.242 8.91723 112.434 9.10347L115.938 12.5188C116.087 12.6645 116.156 12.8744 116.121 13.0794L115.294 17.902C115.257 18.1069 115.265 18.3176 115.319 18.5188C115.374 18.7199 115.472 18.9065 115.607 19.065C116.034 19.5724 116.779 19.727 117.375 19.4138L121.706 17.1367C121.797 17.0901 121.898 17.0658 122.001 17.0658C122.103 17.0658 122.204 17.0901 122.295 17.1367L126.626 19.4138C126.832 19.5234 127.061 19.5807 127.294 19.5808C127.717 19.5808 128.118 19.3926 128.394 19.065C128.529 18.9065 128.628 18.7199 128.682 18.5188C128.736 18.3176 128.744 18.1069 128.707 17.902L127.88 13.0794C127.863 12.9782 127.87 12.8742 127.902 12.7766C127.934 12.6789 127.989 12.5904 128.063 12.5188L131.566 9.10307Z" fill="white"/>
</svg>
