<svg width="173" height="50" viewBox="0 0 173 50" fill="none" xmlns="http://www.w3.org/2000/svg">
<mask id="mask0_54_193" style="mask-type:luminance" maskUnits="userSpaceOnUse" x="0" y="0" width="173" height="43">
<path d="M172.72 0H0V42.6829H172.72V0Z" fill="white"/>
</mask>
<g mask="url(#mask0_54_193)">
<path d="M57.2797 16.0751C59.9485 16.0751 62.0383 16.5423 63.5238 17.4978C65.0093 18.4322 65.7394 19.7488 65.7394 21.4476C65.7394 22.6792 65.3618 23.6985 64.5813 24.5055C63.8008 25.2912 62.6678 25.8433 61.2074 26.1194C64.8582 26.6502 66.6962 28.2641 66.6962 30.9822C66.6962 32.766 65.9157 34.1675 64.3295 35.1868C62.7685 36.2061 60.5276 36.7158 57.607 36.7158H48.3164V16.0963H57.2797V16.0751ZM52.3197 24.824H57.3804C58.7652 24.824 59.8227 24.5692 60.578 24.0383C61.3333 23.5074 61.711 22.7854 61.711 21.8511C61.711 20.938 61.3333 20.216 60.578 19.6851C59.8227 19.1542 58.7652 18.8994 57.3804 18.8994H52.3197V24.824ZM52.3197 33.849H57.6322C59.2184 33.849 60.4269 33.573 61.283 33.0421C62.139 32.5112 62.567 31.7467 62.567 30.7911C62.567 29.8355 62.139 29.0074 61.283 28.4552C60.4269 27.9031 59.2184 27.6271 57.6574 27.6271H52.3449V33.849H52.3197Z" fill="white"/>
<path d="M68.3574 25.1001C69.0876 23.9322 70.1198 23.019 71.4291 22.382C72.7383 21.7449 74.249 21.4264 75.9611 21.4264C77.648 21.4264 79.209 21.7237 80.5183 22.3183C81.8275 22.9129 82.8598 23.741 83.6151 24.824C84.3705 25.907 84.7733 27.1812 84.7733 28.6252C84.7733 29.0286 84.7481 29.4109 84.6726 29.8356H71.1773V30.0054C71.278 31.322 71.7564 32.3626 72.6376 33.127C73.5188 33.8915 74.7022 34.2737 76.1625 34.2737C77.3207 34.2737 78.3026 34.0401 79.1083 33.573C79.8888 33.1058 80.4176 32.4687 80.6693 31.6193H84.446C84.1187 33.1483 83.2375 34.4011 81.8023 35.3992C80.3672 36.376 78.5796 36.8644 76.4395 36.8644C74.5763 36.8644 72.9398 36.5459 71.555 35.9089C70.1702 35.2718 69.0876 34.3799 68.3322 33.212C67.5769 32.044 67.1992 30.7062 67.1992 29.1773C67.2748 27.6483 67.6272 26.268 68.3574 25.1001ZM80.9715 27.5209C80.8204 26.4167 80.2917 25.5673 79.4104 24.9514C78.5292 24.3356 77.4466 24.0171 76.1122 24.0171C74.8784 24.0171 73.821 24.3356 72.9146 24.9727C72.0082 25.6097 71.5046 26.4592 71.3536 27.5209H80.9715Z" fill="white"/>
<path d="M103.555 33.934V36.6946H101.566C100.408 36.6946 99.5515 36.4822 99.048 36.0787C98.5444 35.6753 98.2927 35.0594 98.2927 34.2737C96.9331 35.9938 94.9692 36.8644 92.4011 36.8644C90.3868 36.8644 88.8006 36.4822 87.5921 35.6965C86.3836 34.9108 85.7793 33.8278 85.7793 32.4475C85.7793 30.8973 86.4339 29.7082 87.7432 28.8587C89.0524 28.0306 90.9407 27.6059 93.4333 27.6059H97.9402V26.6927C97.9402 25.8433 97.5877 25.185 96.8827 24.6966C96.1777 24.2082 95.221 23.9746 93.9873 23.9746C92.9046 23.9746 91.9982 24.187 91.2681 24.5692C90.5631 24.9727 90.1351 25.5036 89.984 26.1831H86.2829C86.4591 24.6754 87.2648 23.5074 88.6496 22.658C90.0343 21.8299 91.8723 21.4052 94.1383 21.4052C96.5302 21.4052 98.3934 21.8723 99.7026 22.8279C101.012 23.7623 101.666 25.1213 101.666 26.8839V32.8297C101.666 33.5305 102.069 33.8915 102.85 33.8915L103.555 33.934ZM97.8898 29.9842H93.2067C92.0486 29.9842 91.1422 30.1753 90.5127 30.5576C89.8833 30.9398 89.5811 31.5132 89.5811 32.2564C89.5811 32.9147 89.8833 33.4243 90.4624 33.8278C91.0666 34.2313 91.8723 34.4224 92.8794 34.4224C94.4405 34.4224 95.649 34.0614 96.5302 33.3606C97.4114 32.6599 97.8395 31.7043 97.8646 30.5363V29.9842H97.8898Z" fill="white"/>
<path d="M105.368 24.4206H102.271V21.6176H105.368V17.413H109.17V21.6176H113.476V24.4206H109.17V32.2777C109.17 32.8722 109.321 33.2757 109.598 33.5305C109.875 33.7854 110.354 33.8915 111.033 33.8915H113.904V36.6946H110.278C108.566 36.6946 107.332 36.3548 106.552 35.6965C105.771 35.0382 105.394 33.9977 105.394 32.5962L105.368 24.4206Z" fill="white"/>
<path d="M129.162 22.3607C130.446 22.9766 131.453 23.8684 132.158 25.0364C132.888 26.2043 133.24 27.5846 133.24 29.156C133.24 30.7274 132.888 32.044 132.158 33.212C131.428 34.3799 130.446 35.293 129.162 35.9301C127.878 36.5672 126.417 36.8857 124.806 36.8857C123.471 36.8857 122.338 36.6733 121.356 36.2699C120.375 35.8664 119.594 35.293 119.015 34.5923V42.598H115.238V21.6175H118.511L118.965 23.8472C120.4 22.2333 122.364 21.4264 124.806 21.4264C126.417 21.4476 127.878 21.7449 129.162 22.3607ZM127.953 32.7873C128.91 31.8529 129.413 30.6425 129.413 29.156C129.413 27.6696 128.935 26.4592 127.953 25.5248C126.996 24.6117 125.712 24.1445 124.151 24.1445C122.59 24.1445 121.331 24.5904 120.375 25.5248C119.418 26.4379 118.939 27.6271 118.939 29.1136C118.939 30.5788 119.418 31.8529 120.375 32.7873C121.331 33.7216 122.59 34.21 124.151 34.21C125.737 34.1888 126.996 33.7216 127.953 32.7873Z" fill="white"/>
<path d="M138.578 35.9301C137.194 35.293 136.111 34.3799 135.356 33.212C134.6 32.044 134.223 30.685 134.223 29.156C134.223 27.6271 134.6 26.3105 135.356 25.1426C136.111 23.9746 137.194 23.0615 138.578 22.4245C139.963 21.7874 141.549 21.4476 143.337 21.4476C145.125 21.4476 146.711 21.7662 148.096 22.4245C149.48 23.0615 150.563 23.9746 151.318 25.1426C152.074 26.3105 152.451 27.6483 152.451 29.156C152.451 30.6637 152.074 32.044 151.318 33.212C150.563 34.3799 149.48 35.293 148.096 35.9301C146.711 36.5672 145.125 36.8857 143.337 36.8857C141.549 36.8857 139.963 36.5672 138.578 35.9301ZM147.164 32.766C148.121 31.8317 148.624 30.6213 148.624 29.156C148.624 27.6908 148.146 26.4804 147.164 25.546C146.207 24.6117 144.923 24.1445 143.337 24.1445C141.751 24.1445 140.492 24.6117 139.535 25.546C138.578 26.4804 138.1 27.6908 138.1 29.156C138.1 30.6213 138.578 31.8317 139.535 32.766C140.492 33.7004 141.751 34.1676 143.337 34.1676C144.923 34.1676 146.207 33.7004 147.164 32.766Z" fill="white"/>
<path d="M163.277 21.6176V24.5905H161.591C160.03 24.5905 158.897 25.0152 158.192 25.8646C157.487 26.714 157.134 27.797 157.134 29.1136V36.6946H153.357V21.6176H156.706L157.134 23.8897C157.638 23.189 158.317 22.6368 159.123 22.2334C159.929 21.8299 161.037 21.6388 162.396 21.6388L163.277 21.6176Z" fill="white"/>
<path d="M164.311 17.413H168.087V21.6176H172.418V24.4206H168.087V32.2777C168.087 32.8722 168.238 33.2757 168.515 33.5305C168.792 33.7854 169.271 33.8915 169.95 33.8915H172.821V36.6946H169.195C167.483 36.6946 166.249 36.3548 165.494 35.6965C164.713 35.0382 164.336 33.9977 164.336 32.5962L164.311 17.413Z" fill="white"/>
<path d="M35.4749 26.353C35.4749 32.3201 29.8099 37.1405 22.609 37.1405C15.4333 37.1405 9.81869 32.4263 9.81869 26.353C9.81869 23.4862 11.1028 20.9592 13.1673 19.0481L4.481 26.353L-0.0761719 22.5306L9.71798 14.3763C11.0524 13.2508 11.7322 11.8068 11.7322 10.2142V0H18.1525V10.2142C18.1525 13.357 16.8181 16.0114 14.25 18.1774L13.973 18.411C16.239 16.6697 19.3359 15.6079 22.6342 15.6079C29.9358 15.6292 35.5001 20.4921 35.4749 26.353ZM29.6588 26.353C29.6588 23.1465 26.4864 20.5558 22.609 20.5558C18.7316 20.5558 15.6348 23.2739 15.6348 26.353C15.6348 29.4321 18.7316 32.2139 22.609 32.2139C26.5116 32.2139 29.6588 29.4746 29.6588 26.353Z" fill="white"/>
</g>
</svg>
