<svg width="192" height="50" viewBox="0 0 192 50" fill="none" xmlns="http://www.w3.org/2000/svg">
<path d="M152.203 30.25C152.203 34.5033 155.388 39.75 161.906 39.75C168.578 39.75 171.602 34.5033 171.602 30.25C171.602 25.9967 168.569 20.77 161.906 20.77C155.364 20.77 152.203 26.0467 152.203 30.25ZM156.27 30.25C156.27 27.27 158.458 24.6801 161.906 24.6801C165.556 24.6801 167.554 27.2133 167.554 30.25C167.554 33.1567 165.556 35.84 161.906 35.84C158.435 35.84 156.27 33.1567 156.27 30.25Z" fill="white"/>
<path d="M45.9418 19.2566H45.5273V12.3933H49.9086L48.6819 17.15C48.3605 18.389 47.2318 19.2557 45.9385 19.2566" fill="white"/>
<path d="M142.9 21.1433H121.385V24.9833H130.124V39.61H134.168V24.9833H142.9V21.1433Z" fill="white"/>
<path d="M66.804 21.0834C64.6571 21.1134 63.4505 22.1801 63.0697 24.0267C61.3846 21.5767 59.4164 20.8967 57.0033 20.8967C50.6977 20.8967 47.6543 25.9967 47.6543 30.3834C47.6543 37.7167 53.6196 39.8767 56.6798 39.8767C59.8983 39.8767 62.0013 38.4567 62.9383 36.9567V39.6234H66.9825V21.0834H66.804ZM57.465 36.0834C53.8084 36.0834 51.8334 33.0834 51.8334 30.5101C51.8334 27.8167 53.8084 24.92 57.465 24.92C58.9646 24.9166 60.4041 25.5025 61.4667 26.5491C62.5292 27.5957 63.1277 29.0169 63.1304 30.5C63.1304 33.08 61.2026 36.0734 57.4785 36.0734" fill="white"/>
<path d="M110.934 10H110.758C108.103 10.04 106.889 11.6667 106.889 14.3767V16.9667V23.8367C105.444 21.6866 103.421 20.8967 100.954 20.8967C94.6454 20.8967 91.6055 25.9967 91.6055 30.3834C91.6055 37.7167 97.5674 39.8767 100.628 39.8767C103.85 39.8767 105.952 38.4566 106.889 36.9566V39.6234H110.934V10ZM101.426 36.0733C97.7696 36.0733 95.7946 33.0733 95.7946 30.5C95.7946 27.8066 97.7696 24.91 101.426 24.91C104.548 24.91 107.078 27.4127 107.078 30.5C107.078 33.08 105.15 36.0733 101.426 36.0733Z" fill="white"/>
<path d="M88.9357 12.3867H88.7638C86.1081 12.4267 84.8914 14.0534 84.8914 16.7634V23.8367C83.449 21.6867 81.4234 20.8967 78.9564 20.8967C72.6508 20.8967 69.6074 25.9967 69.6074 30.3834C69.6074 37.7167 75.5727 39.8767 78.6329 39.8767C81.8515 39.8767 83.9545 38.4567 84.8914 36.9567V39.6234H88.9357V12.3867ZM79.4283 36.0734C75.7715 36.0734 73.7966 33.0734 73.7966 30.5001C73.7966 27.8067 75.7715 24.91 79.4283 24.91C82.5497 24.91 85.0802 27.4128 85.0802 30.5001C85.0802 33.0801 83.1524 36.0734 79.4283 36.0734Z" fill="white"/>
<path d="M189.178 22.9465C187.654 21.4266 185.986 20.9199 183.836 20.9199C181.583 20.9372 179.469 22.0045 178.134 23.7999C177.699 22.0933 176.509 21.1133 174.449 21.0833H174.277V39.5999H178.322V34.3765V28.8966C178.322 27.5099 178.591 26.6799 179.37 25.9532C180.323 25.0666 181.71 24.83 182.784 24.83C183.859 24.83 185.238 25.0432 186.182 25.9532C186.95 26.6932 187.233 27.5099 187.233 28.8966V39.5999H191.297V28.6333C191.297 26.4966 190.715 24.4566 189.174 22.9465" fill="white"/>
<path d="M147.08 12.4234C148.528 12.4173 149.778 13.4251 150.065 14.8294C150.352 16.2338 149.595 17.6426 148.257 18.1931C146.921 18.7435 145.375 18.2819 144.57 17.0909C143.765 15.9 143.923 14.3121 144.95 13.3C145.506 12.7279 146.277 12.4103 147.08 12.4234Z" fill="white"/>
<path d="M149.091 39.5934H145.047V25.46C145.047 22.7367 146.26 21.1267 148.916 21.0834H149.091V39.5934Z" fill="white"/>
<path d="M115.08 39.64H119.124V22.9533C119.124 20.2333 117.911 18.62 115.252 18.5767H115.08V39.64Z" fill="white"/>
<path d="M117.092 10.0133C115.643 10.0073 114.392 11.0151 114.105 12.4194C113.819 13.8237 114.576 15.2326 115.913 15.783C117.251 16.3335 118.795 15.8718 119.6 14.6809C120.405 13.49 120.247 11.9021 119.222 10.89C118.665 10.3178 117.893 10.0002 117.092 10.0133Z" fill="white"/>
<path d="M41.6427 19.3534V16.7634C41.6427 14.0401 40.4261 12.4301 37.7704 12.3867H37.5918V39.6301H41.636L41.6427 19.3534Z" fill="white"/>
<path d="M28.2254 19.44V16.8767C28.2254 14.1667 27.0155 12.56 24.37 12.52H4.6373C1.89731 12.52 0.256014 13.7167 0.232422 16.3334V35.2767C0.232422 37.9867 1.44233 39.6101 4.08795 39.6334H23.8138C26.5539 39.6334 28.1951 38.4367 28.2187 35.82V32.24C28.2187 32.1867 28.2187 32.1334 28.2187 32.0801L28.2254 19.44Z" fill="white"/>
<path d="M14.2188 15.8767C12.7576 15.8702 11.4957 16.8863 11.2057 18.3027C10.9157 19.7192 11.6787 21.1408 13.0274 21.697C14.376 22.2531 15.9341 21.7886 16.7474 20.5879C17.5607 19.3872 17.4022 17.7854 16.3691 16.7634C15.808 16.1851 15.0291 15.8639 14.2188 15.8767Z" fill="white"/>
<path d="M14.2188 30.25C12.7576 30.2434 11.4957 31.2595 11.2057 32.676C10.9157 34.0924 11.6787 35.5141 13.0274 36.0702C14.376 36.6264 15.9341 36.1618 16.7474 34.9612C17.5607 33.7606 17.4022 32.1587 16.3691 31.1366C15.808 30.5584 15.0291 30.2372 14.2188 30.25Z" fill="white"/>
<path d="M24.5315 26.0599C24.5315 24.4031 23.1734 23.0599 21.4983 23.0599C19.8231 23.0599 18.4651 24.4031 18.4651 26.0599C18.4551 26.8616 18.7794 27.6319 19.3616 28.1899C19.9274 28.7557 20.6987 29.074 21.5034 29.074C22.3079 29.074 23.0792 28.7557 23.6451 28.1899C24.2272 27.6319 24.5515 26.8616 24.5415 26.0599" fill="white"/>
<path d="M9.99825 26.0599C9.99825 24.4031 8.64024 23.0599 6.96506 23.0599C5.28986 23.0599 3.93186 24.4031 3.93186 26.0599C3.92199 26.8616 4.24622 27.6319 4.82833 28.1899C5.39427 28.7557 6.16547 29.074 6.97011 29.074C7.77474 29.074 8.54596 28.7557 9.11188 28.1899C9.694 27.6319 10.0182 26.8616 10.0084 26.0599" fill="white"/>
</svg>
