<svg width="165" height="50" viewBox="0 0 165 50" fill="none" xmlns="http://www.w3.org/2000/svg">
<g clip-path="url(#clip0_54_251)">
<mask id="mask0_54_251" style="mask-type:luminance" maskUnits="userSpaceOnUse" x="0" y="0" width="165" height="50">
<path d="M164.715 0H0.714844V50H164.715V0Z" fill="white"/>
</mask>
<g mask="url(#mask0_54_251)">
<path d="M52.5272 11.6802C52.8736 11.6768 53.217 11.746 53.536 11.8837C53.8548 12.0214 54.1423 12.2244 54.3804 12.4802C54.6303 12.7335 54.8273 13.0354 54.9598 13.3679C55.0923 13.7003 55.1573 14.0566 55.1512 14.4152C55.1583 14.7706 55.0943 15.1238 54.9629 15.4533C54.8314 15.7828 54.6356 16.0817 54.387 16.3319C54.1523 16.5848 53.8687 16.7856 53.554 16.922C53.2393 17.0581 52.9003 17.1268 52.5584 17.1235C52.2081 17.1293 51.8605 17.06 51.5384 16.9201C51.2162 16.7803 50.9267 16.5731 50.6888 16.3119C50.4364 16.0557 50.2376 15.7503 50.1046 15.414C49.9716 15.0778 49.907 14.7176 49.9147 14.3552C49.9098 14.0034 49.9747 13.6543 50.1057 13.3286C50.2368 13.003 50.4311 12.7076 50.6773 12.4602C50.9174 12.2087 51.2054 12.0097 51.5237 11.8753C51.842 11.7409 52.1841 11.674 52.5288 11.6785L52.5272 11.6802ZM50.4674 18.5668H54.5838V35.2951H50.4674V18.5668ZM62.3574 18.5668V20.4168C63.0445 19.7001 63.8596 19.1218 64.76 18.7151C65.6319 18.3335 66.5722 18.139 67.5217 18.1435C68.5503 18.1315 69.5693 18.3466 70.508 18.7743C71.4467 19.202 72.2828 19.8318 72.9583 20.6201C74.482 22.3641 75.2825 24.6398 75.192 26.9701C75.2596 29.2815 74.4289 31.5268 72.8796 33.2201C72.1949 34.012 71.3516 34.6461 70.4065 35.0801C69.4618 35.5135 68.4385 35.7368 67.4036 35.7335C66.5016 35.7401 65.6095 35.5668 64.7747 35.2185C63.8742 34.812 63.0544 34.2415 62.3557 33.5351V41.4185H58.2869V18.5651H62.3557L62.3574 18.5668ZM66.6656 22.0135C66.0661 21.996 65.4696 22.1076 64.9156 22.3411C64.3616 22.5746 63.8625 22.9248 63.4512 23.3685C63.0193 23.8418 62.684 24.3975 62.4653 25.0035C62.2465 25.6095 62.1486 26.2536 62.177 26.8985C62.1186 28.2241 62.577 29.5195 63.4529 30.5035C63.8619 30.9516 64.3601 31.3063 64.9143 31.5438C65.4684 31.7815 66.0659 31.8966 66.6673 31.8818C67.2621 31.893 67.8522 31.7736 68.3975 31.532C68.9429 31.2905 69.4307 30.9323 69.8276 30.4818C70.6972 29.5091 71.1565 28.2285 71.1068 26.9151C71.156 25.6151 70.7033 24.3485 69.8472 23.3868C69.4446 22.9393 68.9525 22.5846 68.4035 22.3468C67.8546 22.1091 67.2621 21.9938 66.6656 22.0085V22.0135ZM80.1907 11.6802C80.5377 11.6763 80.8816 11.7454 81.2011 11.883C81.5206 12.0207 81.8087 12.224 82.0472 12.4802C82.2973 12.7337 82.4944 13.0358 82.6269 13.3686C82.7594 13.7014 82.8244 14.0579 82.818 14.4169C82.825 14.7723 82.7611 15.1255 82.6297 15.455C82.4982 15.7845 82.3024 16.0834 82.0538 16.3335C81.8191 16.5864 81.5354 16.7871 81.2208 16.9235C80.9061 17.0596 80.5671 17.1283 80.2252 17.1251C79.8748 17.131 79.5273 17.0616 79.2052 16.9218C78.883 16.782 78.5935 16.5747 78.3556 16.3135C78.103 16.0575 77.9044 15.7521 77.7712 15.4158C77.6382 15.0795 77.5736 14.7192 77.5815 14.3569C77.5764 14.0051 77.6413 13.6559 77.7724 13.3302C77.9034 13.0046 78.0979 12.7092 78.3441 12.4619C78.5842 12.2104 78.8722 12.0114 79.1905 11.877C79.5088 11.7426 79.8509 11.6756 80.1956 11.6802H80.1907ZM78.1325 18.5668H82.2489V35.2951H78.1325V18.5668ZM85.952 18.5668H90.0356V20.2768C90.7894 19.5898 91.6443 19.027 92.5694 18.6085C93.3032 18.2975 94.09 18.1366 94.8851 18.1351C95.6546 18.1211 96.4187 18.269 97.1293 18.5693C97.8399 18.8695 98.4818 19.3158 99.0146 19.8801C99.5257 20.4755 99.915 21.1681 100.16 21.9178C100.405 22.6675 100.5 23.4591 100.441 24.2468V35.2968H96.3874V27.9668C96.4366 26.6335 96.348 25.3001 96.1184 23.9868C95.9836 23.3975 95.6607 22.8701 95.2 22.4868C94.737 22.1351 94.1704 21.9536 93.5928 21.9718C93.1979 21.964 92.8054 22.0353 92.4379 22.1821C92.0702 22.3288 91.7348 22.548 91.451 22.8268C90.8163 23.4685 90.385 24.2885 90.2111 25.1835C90.0533 26.3093 89.993 27.447 90.0307 28.5835V35.3001H85.9471V18.5668H85.952ZM102.45 18.5668H103.91C103.922 16.3769 103.953 15.0802 104.015 14.6752C104.052 14.2524 104.171 13.8412 104.366 13.4654C104.56 13.0895 104.825 12.7564 105.147 12.4852C105.94 11.8987 106.91 11.6121 107.889 11.6752C108.874 11.7035 109.848 11.9085 110.767 12.2802V15.4802C110.296 15.3238 109.806 15.2357 109.311 15.2185C108.936 15.1856 108.562 15.2935 108.261 15.5219C108.066 15.799 107.981 16.1406 108.023 16.4785L108.007 18.5668H110.606V22.1335H108.005V35.2951H103.91V22.1351H102.454V18.5685L102.45 18.5668ZM120.679 18.1351C122.206 18.1333 123.707 18.5428 125.028 19.3218C126.344 20.0828 127.436 21.1863 128.192 22.5185C128.95 23.8535 129.348 25.3718 129.343 26.9151C129.349 28.468 128.953 29.9951 128.195 31.3435C127.458 32.6866 126.375 33.8008 125.063 34.5668C123.734 35.3406 122.226 35.7405 120.694 35.7251C119.575 35.7431 118.464 35.5248 117.432 35.0841C116.4 34.6435 115.469 33.9901 114.698 33.1651C113.893 32.3528 113.257 31.3833 112.83 30.315C112.403 29.2466 112.194 28.1015 112.213 26.9485C112.187 25.7151 112.427 24.4918 112.912 23.3618C113.396 22.235 114.116 21.229 115.021 20.4135C116.548 18.942 118.575 18.1263 120.679 18.1368V18.1351ZM120.743 22.0885C120.148 22.0731 119.557 22.1868 119.009 22.422C118.461 22.657 117.969 23.0081 117.565 23.4518C117.139 23.9188 116.808 24.4665 116.591 25.0636C116.373 25.6608 116.274 26.2956 116.299 26.9318C116.24 28.2336 116.691 29.5061 117.552 30.4718C117.955 30.9131 118.447 31.2621 118.994 31.4955C119.541 31.7288 120.13 31.8411 120.723 31.8251C121.321 31.8413 121.916 31.7275 122.467 31.4916C123.019 31.2556 123.515 30.9028 123.921 30.4568C124.351 29.984 124.685 29.4295 124.904 28.8251C125.123 28.2208 125.222 27.5786 125.196 26.9351C125.249 25.6483 124.799 24.3923 123.946 23.4401C123.536 22.9986 123.038 22.65 122.486 22.417C121.934 22.1841 121.34 22.0721 120.743 22.0885ZM134.929 30.9135C135.238 30.9085 135.545 30.9678 135.831 31.0878C136.117 31.208 136.375 31.3863 136.59 31.6118C136.864 31.8933 137.065 32.2388 137.176 32.6176C137.287 32.9966 137.305 33.3975 137.228 33.7851C137.152 34.1718 136.984 34.5336 136.738 34.839C136.492 35.1443 136.177 35.3838 135.82 35.5368C135.28 35.7661 134.675 35.7816 134.125 35.5801C133.575 35.3786 133.119 34.975 132.848 34.4485C132.684 34.1343 132.591 33.7873 132.573 33.4321C132.557 33.077 132.617 32.7225 132.749 32.3935C132.989 31.8061 133.448 31.3391 134.025 31.0951C134.311 30.9751 134.616 30.9151 134.926 30.9168L134.929 30.9135ZM142.899 11.6802C143.246 11.6763 143.59 11.7454 143.91 11.883C144.229 12.0207 144.517 12.224 144.756 12.4802C145.006 12.7338 145.203 13.036 145.335 13.3688C145.467 13.7016 145.532 14.0581 145.525 14.4169C145.532 14.7723 145.468 15.1255 145.337 15.455C145.205 15.7844 145.009 16.0833 144.761 16.3335C144.526 16.5863 144.242 16.7871 143.928 16.9233C143.613 17.0595 143.274 17.1283 142.932 17.1251C142.582 17.131 142.234 17.0616 141.912 16.9218C141.59 16.782 141.301 16.5747 141.063 16.3135C140.81 16.0574 140.611 15.752 140.478 15.4157C140.345 15.0794 140.281 14.7192 140.289 14.3569C140.287 13.6482 140.561 12.9677 141.051 12.4635C141.293 12.2153 141.581 12.0182 141.899 11.8838C142.216 11.7493 142.555 11.6801 142.899 11.6802ZM140.841 18.5668H144.958V35.2951H140.841V18.5668ZM156.333 18.1351C157.86 18.1333 159.361 18.5428 160.682 19.3218C161.997 20.0828 163.089 21.1861 163.845 22.5185C164.603 23.8556 165.001 25.3721 164.996 26.9151C165.003 28.468 164.606 29.995 163.849 31.3435C163.111 32.6866 162.029 33.8008 160.716 34.5668C159.387 35.3408 157.878 35.7406 156.346 35.7251C155.229 35.742 154.12 35.5235 153.09 35.0835C152.058 34.642 151.127 33.989 150.355 33.1651C149.55 32.3526 148.915 31.3831 148.488 30.3148C148.061 29.2465 147.851 28.1015 147.87 26.9485C147.843 25.7165 148.08 24.4931 148.566 23.3635C149.048 22.2365 149.767 21.2298 150.671 20.4135C152.198 18.9413 154.225 18.1251 156.329 18.1351H156.333ZM156.393 22.0885C155.799 22.0731 155.208 22.1868 154.66 22.422C154.112 22.6571 153.62 23.0081 153.217 23.4518C152.791 23.9188 152.459 24.4665 152.242 25.0636C152.024 25.6608 151.925 26.2956 151.949 26.9318C151.892 28.2341 152.343 29.5065 153.205 30.4718C153.609 30.9131 154.101 31.2621 154.648 31.4955C155.194 31.7288 155.784 31.8411 156.377 31.8251C156.975 31.8411 157.569 31.7273 158.12 31.4915C158.671 31.2555 159.167 30.9028 159.573 30.4568C160.004 29.9841 160.338 29.4298 160.557 28.8253C160.776 28.221 160.875 27.5786 160.849 26.9351C160.902 25.6485 160.453 24.3925 159.6 23.4401C159.188 22.9986 158.69 22.6501 158.137 22.4178C157.584 22.1855 156.99 22.0743 156.392 22.0918L156.393 22.0885Z" fill="white" fill-opacity="0.9"/>
<path fill-rule="evenodd" clip-rule="evenodd" d="M22.3729 37.6812L25.5741 41.4696L29.2723 38.1929L32.8951 34.9829C36.7909 31.5019 39.1807 26.6016 39.5469 21.3429C39.9202 16.0803 38.2413 10.8797 34.8729 6.86454C33.2023 4.89552 31.166 3.28044 28.8809 2.11164C26.5955 0.942847 24.106 0.243259 21.5545 0.0528724C19.0043 -0.134307 16.4427 0.192022 14.0167 1.01314C11.5908 1.83427 9.34826 3.13402 7.41772 4.83787C3.52165 8.31932 1.13186 13.2203 0.765886 18.4796C0.393241 23.7416 2.07209 28.9414 5.43988 32.9562L18.2138 48.0729C19.3552 49.4229 20.5557 50.8862 22.4106 49.3262L22.4663 49.2779L22.5188 49.2296C24.2933 47.5712 23.0518 46.1446 21.9104 44.7929L21.1133 43.8512L9.13808 29.6729C6.62011 26.6654 5.36559 22.7731 5.64488 18.8346C5.91983 14.8984 7.70776 11.2303 10.6223 8.62287C12.0683 7.34892 13.7473 6.37729 15.5633 5.76355C17.3792 5.14982 19.2964 4.90605 21.2052 5.0462C25.0623 5.33464 28.649 7.16787 31.1764 10.1429C33.6944 13.1503 34.9489 17.0427 34.6696 20.9812C34.395 24.9171 32.6078 28.5852 29.6938 31.1929L26.0727 34.4029L22.8714 30.6146L19.6701 26.8262L16.5378 23.1179C15.7193 22.1264 15.3125 20.8502 15.4034 19.5594C15.4943 18.2684 16.0758 17.0642 17.0248 16.2012C17.9888 15.3644 19.2386 14.9474 20.5031 15.0407C21.7677 15.134 22.945 15.73 23.78 16.6996C24.4935 17.5637 24.8981 18.6479 24.928 19.7754C24.9578 20.9031 24.611 22.0077 23.944 22.9096C23.6258 23.3801 23.4687 23.9439 23.4972 24.5141C23.5256 25.0844 23.738 25.6292 24.1014 26.0646C25.7086 27.9662 27.4815 26.6579 28.4261 25.0479C29.4781 23.2507 29.9521 21.1649 29.7819 19.0809C29.6116 16.9971 28.8057 15.0191 27.4765 13.4229C25.7968 11.4495 23.4149 10.2346 20.8542 10.0452C18.2933 9.8558 15.7635 10.7074 13.8203 12.4129C11.8889 14.1495 10.7041 16.5861 10.5198 19.2002C10.3355 21.8142 11.1666 24.3976 12.8346 26.3962L15.9687 30.1062L19.1716 33.8896L22.3729 37.6779V37.6812Z" fill="white"/>
</g>
</g>
<defs>
<clipPath id="clip0_54_251">
<rect width="164" height="50" fill="white" transform="translate(0.714844)"/>
</clipPath>
</defs>
</svg>
