<svg width="165" height="44" viewBox="0 0 165 44" fill="none" xmlns="http://www.w3.org/2000/svg">
<path d="M159.146 3.97903V20.6186H154.283V8.17807H140.252V3.97903H159.146Z" fill="white"/>
<path d="M30.2703 31.3421H12.4373L8.64015 40.3621H2.25391L18.0742 3.98177H25.0345L40.7395 40.3621H34.0098L30.2703 31.3421ZM14.3347 26.8321H28.3705L21.4102 10.0614L14.3347 26.8321Z" fill="white"/>
<path d="M42.582 40.3594L53.3971 26.6285L43.2713 13.5046H50.001L57.5377 23.6394L65.0744 13.5046H71.3453L61.3349 26.7808L72.0347 40.3594H65.3626L57.1943 29.6683L49.1412 40.3594H42.582Z" fill="white"/>
<path d="M73.2446 26.7808C73.2446 18.8248 79.4003 12.999 87.7992 12.999C96.8898 12.999 102.93 19.4848 101.893 28.2002H79.1697C79.6308 33.6727 82.7363 36.8648 87.8568 36.8648C92.1703 36.8648 95.1629 34.7875 96.1404 31.2908H101.893C100.396 37.2688 95.1629 40.8671 87.9697 40.8671C79.1673 40.8671 73.2422 35.2423 73.2422 26.7808H73.2446ZM79.2273 24.805H95.7369C95.4487 19.8402 92.4009 16.849 87.6839 16.849C82.9669 16.849 79.8614 19.7873 79.2273 24.805Z" fill="white"/>
<path d="M108.049 40.3594V3.97903H113.916V40.3594H108.049Z" fill="white"/>
<path d="M119.783 26.9331C119.783 18.9771 126.112 12.999 134.741 12.999C143.371 12.999 149.699 18.9771 149.699 26.9331C149.699 34.889 143.371 40.8671 134.741 40.8671C126.112 40.8671 119.783 34.889 119.783 26.9331ZM143.717 26.9331C143.717 21.0544 139.747 17.5598 134.741 17.5598C129.736 17.5598 125.824 21.0565 125.824 26.9331C125.824 32.8096 129.736 36.3571 134.741 36.3571C139.747 36.3571 143.717 32.8096 143.717 26.9331Z" fill="white"/>
<path d="M151.379 40.8671V39.5281H150.836V39.2552H152.289V39.5281H151.746V40.8671H151.376H151.379Z" fill="white"/>
<path d="M152.521 40.8671V39.2552H153.074L153.405 40.3552L153.734 39.2552H154.289V40.8671H153.946V39.5979L153.583 40.8671H153.228L152.865 39.5979V40.8671H152.521Z" fill="white"/>
</svg>
