<svg width="78" height="50" viewBox="0 0 78 50" fill="none" xmlns="http://www.w3.org/2000/svg">
<g clip-path="url(#clip0_54_226)">
<mask id="mask0_54_226" style="mask-type:luminance" maskUnits="userSpaceOnUse" x="0" y="12" width="78" height="27">
<path d="M77.1434 12.1428H0.714844V38.5714H77.1434V12.1428Z" fill="white"/>
</mask>
<g mask="url(#mask0_54_226)">
<path d="M52.675 31.9895C52.0646 32.8591 51.1897 33.512 50.1783 33.8525C49.1669 34.193 48.0722 34.2033 47.0546 33.8817C46.0369 33.5602 45.1498 32.9238 44.5231 32.0657C43.8962 31.2076 43.5628 30.173 43.5716 29.1133C43.5803 28.0535 43.9309 27.0244 44.5717 26.1766C45.2125 25.329 46.1101 24.7071 47.133 24.4021C48.1557 24.0972 49.2502 24.1252 50.2558 24.4821C51.2614 24.839 52.1254 25.506 52.7213 26.3855L56.4165 24.2207C55.3405 22.5363 53.7429 21.2438 51.8635 20.5372C49.9841 19.8306 47.9245 19.7481 45.9937 20.3021C44.0631 20.856 42.3657 22.0166 41.1564 23.6094C39.9471 25.2022 39.2912 27.1414 39.2872 29.1356C39.2833 31.1298 39.9314 33.0715 41.1344 34.669C42.3373 36.2666 44.0301 37.4338 45.9587 37.9954C47.8871 38.5569 49.9471 38.4825 51.8292 37.7832C53.7114 37.084 55.3141 35.7978 56.3968 34.1176L52.6761 31.9895H52.675ZM62.8562 12.1428H58.5692V37.659H62.8539V29.1536C62.8539 27.8377 63.3807 26.5757 64.3184 25.6452C65.2562 24.7147 66.528 24.192 67.8542 24.192C69.1803 24.192 70.4522 24.7147 71.3899 25.6452C72.3277 26.5757 72.8544 27.8377 72.8544 29.1536V37.659H77.1402V28.3263C77.1395 26.6847 76.6535 25.0795 75.7424 23.7093C74.8312 22.3392 73.5349 21.2645 72.0142 20.6184C70.4934 19.9723 68.815 19.7831 67.1869 20.0744C65.5588 20.3656 64.0526 21.1245 62.855 22.2569V12.1428H62.8562ZM32.8568 12.1428H28.571V31.9884C28.5708 33.2132 28.9261 34.4121 29.5941 35.4419C30.2623 36.4718 31.2151 37.2889 32.3387 37.7959C33.4625 38.3027 34.7094 38.4779 35.9306 38.3004C37.1519 38.1229 38.2959 37.6003 39.2259 36.7949L37.1554 33.3087C36.9549 33.5601 36.6997 33.7631 36.4089 33.9026C36.1181 34.0421 35.7992 34.1144 35.4762 34.1142H34.9991C34.431 34.1138 33.8863 33.8897 33.4846 33.4912C33.0829 33.0926 32.8571 32.5521 32.8568 31.9884V24.9009H37.1415V20.6482H32.8568V12.1428ZM23.5742 12.1428C22.9428 12.1428 22.3371 12.3917 21.8907 12.8348C21.4442 13.2778 21.1934 13.8787 21.1934 14.5053C21.1934 15.1319 21.4442 15.7328 21.8907 16.1758C22.3371 16.6189 22.9428 16.8678 23.5742 16.8678C24.2057 16.8678 24.8112 16.6189 25.2577 16.1758C25.7043 15.7328 25.9551 15.1319 25.9551 14.5053C25.9551 13.8787 25.7043 13.2778 25.2577 12.8348C24.8112 12.3917 24.2057 12.1428 23.5742 12.1428ZM25.7165 37.659V20.6482H21.4319V37.659H25.7165Z" fill="white" fill-opacity="0.9"/>
<path fill-rule="evenodd" clip-rule="evenodd" d="M0.714844 37.659H4.99948V32.6974H8.9286C10.2887 32.6974 11.6355 32.4316 12.8921 31.9151C14.1488 31.3986 15.2905 30.6416 16.2523 29.6873C17.214 28.7328 17.9769 27.6 18.4975 26.353C19.018 25.1062 19.2858 23.7697 19.2858 22.4201C19.2858 21.0705 19.018 19.7341 18.4975 18.4872C17.9769 17.2403 17.214 16.1073 16.2523 15.153C15.2905 14.1986 14.1488 13.4416 12.8921 12.9251C11.6355 12.4087 10.2887 12.1428 8.9286 12.1428H0.714844V37.659ZM4.99948 16.3944H8.9286C10.5388 16.3944 12.0831 17.0291 13.2218 18.1589C14.3604 19.2888 15 20.8211 15 22.4189C15 24.0167 14.3604 25.5491 13.2218 26.679C12.0831 27.8088 10.5388 28.4435 8.9286 28.4435H5.00063L4.99948 16.3944Z" fill="white" fill-opacity="0.9"/>
</g>
</g>
<defs>
<clipPath id="clip0_54_226">
<rect width="76.4286" height="50" fill="white" transform="translate(0.714844)"/>
</clipPath>
</defs>
</svg>
