<svg width="200" height="50" viewBox="0 0 200 50" fill="none" xmlns="http://www.w3.org/2000/svg">
<path fill-rule="evenodd" clip-rule="evenodd" d="M40.4584 20.6569C39.9934 20.5855 39.5285 20.5505 39.0992 20.5505C35.88 20.5505 34.4135 22.4059 34.4135 25.6539V33.9333H30.2656V16.5529H34.3068V19.3369C35.1295 17.4452 37.0604 16.3387 39.3496 16.3387C39.8504 16.3387 40.2796 16.4101 40.4584 16.4458V20.6569Z" fill="white"/>
<path fill-rule="evenodd" clip-rule="evenodd" d="M56.3751 25.225C56.3751 21.6207 54.0859 19.7653 51.5112 19.7653C48.9716 19.7653 46.6466 21.6207 46.6466 25.225C46.6466 28.83 48.9716 30.7574 51.5112 30.7574C54.0859 30.7574 56.3751 28.8663 56.3751 25.225ZM60.5594 25.225C60.5594 30.5789 56.7328 34.4688 51.5112 34.4688C46.3247 34.4688 42.498 30.5789 42.498 25.225C42.498 19.9074 46.3247 16.0176 51.5112 16.0176C56.7328 16.0176 60.5594 19.9074 60.5594 25.225Z" fill="white"/>
<path fill-rule="evenodd" clip-rule="evenodd" d="M73.4378 19.8368C70.7201 19.8368 68.7528 21.9777 68.7528 25.225C68.7528 28.5445 70.7201 30.6861 73.4378 30.6861C76.1921 30.6861 78.1236 28.5445 78.1236 25.225C78.1236 21.9777 76.2278 19.8368 73.4378 19.8368ZM64.6758 40.7144V16.553H68.6812V18.9088C69.5397 17.4097 71.5428 16.1604 74.2248 16.1604C79.3748 16.1604 82.2721 20.0866 82.2721 25.225C82.2721 30.4362 79.0887 34.3618 74.0817 34.3618C71.5778 34.3618 69.6828 33.291 68.7885 31.971V40.7144H64.6758Z" fill="white"/>
<path fill-rule="evenodd" clip-rule="evenodd" d="M98.9037 25.225C98.9037 21.6207 96.6145 19.7653 94.0398 19.7653C91.5002 19.7653 89.1759 21.6207 89.1759 25.225C89.1759 28.83 91.5002 30.7574 94.0398 30.7574C96.6145 30.7574 98.9037 28.8663 98.9037 25.225ZM103.088 25.225C103.088 30.5789 99.2614 34.4688 94.0398 34.4688C88.854 34.4688 85.0273 30.5789 85.0273 25.225C85.0273 19.9074 88.854 16.0176 94.0398 16.0176C99.2614 16.0176 103.088 19.9074 103.088 25.225Z" fill="white"/>
<path fill-rule="evenodd" clip-rule="evenodd" d="M133.35 26.7248V25.9395L128.808 26.6177C127.52 26.8312 126.483 27.5457 126.483 28.9727C126.483 30.1506 127.377 31.2214 129.023 31.2214C131.347 31.2214 133.35 30.1149 133.35 26.7248ZM127.591 23.9764L132.062 23.2983C133.064 23.1555 133.35 22.6558 133.35 22.049C133.35 20.5856 132.349 19.4084 130.06 19.4084C127.878 19.4084 126.661 20.8004 126.483 22.5487L122.692 21.6921C123.014 18.6945 125.732 16.0176 130.024 16.0176C135.388 16.0176 137.427 19.0515 137.427 22.513V31.15C137.427 32.7198 137.606 33.7556 137.642 33.9334H133.779C133.744 33.8263 133.601 33.1125 133.601 31.7211C132.778 33.0417 131.061 34.4688 128.236 34.4688C124.587 34.4688 122.334 31.971 122.334 29.2226C122.334 26.118 124.623 24.4047 127.591 23.9764Z" fill="white"/>
<path fill-rule="evenodd" clip-rule="evenodd" d="M142.545 33.9334H146.693V9.83667H142.545V33.9334Z" fill="white"/>
<path fill-rule="evenodd" clip-rule="evenodd" d="M163.611 23.3339C163.538 21.2995 162.179 19.4798 159.318 19.4798C156.708 19.4798 155.205 21.4786 155.062 23.3339H163.611ZM167.58 28.9727C166.65 32.0066 163.896 34.4688 159.712 34.4688C154.991 34.4688 150.807 31.0429 150.807 25.1536C150.807 19.6576 154.884 16.0176 159.283 16.0176C164.648 16.0176 167.795 19.5512 167.795 25.0472C167.795 25.7254 167.723 26.2958 167.688 26.3678H154.955C155.062 29.0091 157.137 30.9002 159.712 30.9002C162.216 30.9002 163.503 29.5795 164.075 27.8663L167.58 28.9727Z" fill="white"/>
<path fill-rule="evenodd" clip-rule="evenodd" d="M18.8117 9.316L17.0543 9.30859L17.0374 13.1722L18.2468 13.1769C20.4726 13.187 21.8224 14.4484 21.8136 16.4768C21.8048 18.4406 20.4442 19.7222 18.2178 19.7121L17.0091 19.7073L16.9922 23.5379L18.7496 23.5461C23.2659 23.5655 26.28 20.6165 26.2983 16.464C26.3158 12.3432 23.3287 9.33621 18.8117 9.316Z" fill="white"/>
<path fill-rule="evenodd" clip-rule="evenodd" d="M9.1478 9.28577L9.10258 19.6845L9.06276 19.6838L9.04589 23.5151H9.05332L9.02497 30.0503H9.01687L9 33.9139L13.492 33.9334L13.6 9.3053L9.1478 9.28577Z" fill="white"/>
<path fill-rule="evenodd" clip-rule="evenodd" d="M181.617 9.83667L181.613 13.705C182.989 13.7804 184.415 15.0007 184.423 16.9018L188.907 16.914C188.89 12.8409 185.989 9.92826 181.617 9.83667Z" fill="white"/>
<path fill-rule="evenodd" clip-rule="evenodd" d="M175.211 17.0001C175.203 15.1643 176.308 13.9574 178.167 13.7372L178.164 9.84131C173.675 9.88239 170.709 12.8813 170.727 16.9873C170.745 21.1095 173.714 24.0437 178.176 24.068L178.173 20.201C176.325 19.9848 175.219 18.7699 175.211 17.0001Z" fill="white"/>
<path fill-rule="evenodd" clip-rule="evenodd" d="M178.166 34.4688L178.17 30.6005C176.793 30.5251 175.368 29.3048 175.36 27.4037L170.875 27.3909C170.893 31.4646 173.793 34.3772 178.166 34.4688Z" fill="white"/>
<path fill-rule="evenodd" clip-rule="evenodd" d="M184.573 27.3053C184.582 29.1404 183.477 30.3479 181.617 30.5682L181.62 34.4641C186.11 34.423 189.076 31.4241 189.058 27.3181C189.039 23.1959 186.07 20.2617 181.609 20.2374L181.612 24.1044C183.46 24.3206 184.565 25.5355 184.573 27.3053Z" fill="white"/>
<path fill-rule="evenodd" clip-rule="evenodd" d="M112.408 34.4688C108.16 34.4688 105.791 31.9184 105.775 28.4603L109.582 28.4717C109.59 30.0846 111.034 31.185 112.463 31.185L112.82 31.1857C114.537 31.1857 115.43 30.2577 115.43 29.1869C115.43 28.2589 114.786 27.5457 113.391 27.2602L110.817 26.6884C107.741 26.0109 106.132 24.0121 106.132 21.6207C106.132 18.5875 108.921 16.0176 112.534 16.0176H113.209C116.858 16.0944 119.279 18.5255 119.294 21.9251L115.551 21.9143C115.544 20.3277 114.304 19.3101 112.81 19.2596L112.534 19.2656C111.067 19.2656 110.03 20.193 110.03 21.2638C110.03 22.1918 110.709 22.8699 111.783 23.0841L114.429 23.6195C117.72 24.3333 119.436 26.3321 119.436 28.9014C119.436 31.542 117.29 34.4688 112.855 34.4688H112.408Z" fill="white"/>
<path fill-rule="evenodd" clip-rule="evenodd" d="M193.474 31.9198C193.689 31.9198 193.814 31.8066 193.814 31.6235C193.814 31.4349 193.689 31.3218 193.474 31.3218H193.21V31.9198H193.474ZM193.365 32.3131H193.21V33.0882H192.745V30.9285H193.549C193.97 30.9285 194.289 31.2356 194.289 31.6181C194.289 31.9144 194.111 32.1514 193.846 32.2531L194.305 33.0882H193.776L193.365 32.3131ZM193.436 33.6054C194.293 33.6054 194.968 32.9158 194.968 32.0215C194.968 31.1339 194.293 30.4442 193.436 30.4442C192.573 30.4442 191.903 31.1339 191.903 32.0215C191.903 32.9158 192.573 33.6054 193.436 33.6054ZM193.436 30.0348C194.532 30.0348 195.421 30.9285 195.421 32.0215C195.421 33.1205 194.532 34.0142 193.436 34.0142C192.34 34.0142 191.461 33.1205 191.461 32.0215C191.461 30.9285 192.34 30.0348 193.436 30.0348Z" fill="white"/>
</svg>
