<svg width="233" height="50" viewBox="0 0 233 50" fill="none" xmlns="http://www.w3.org/2000/svg">
<mask id="mask0_54_258" style="mask-type:luminance" maskUnits="userSpaceOnUse" x="8" y="7" width="224" height="37">
<path d="M231.809 7H8.02734V44H231.809V7Z" fill="white"/>
</mask>
<g mask="url(#mask0_54_258)">
<path d="M34.8866 20.9778H32.1459V18.3741C32.1459 15.3593 30.7755 12.4815 28.5829 10.2889C26.2533 8.23333 23.2385 7 20.0866 7C16.9348 7 13.9199 8.23333 11.5903 10.2889C9.39771 12.4815 8.02734 15.3593 8.02734 18.3741V32.4889C8.02734 35.5037 9.26068 38.5185 11.5903 40.5741C13.7829 42.7667 16.9348 44 20.0866 44H34.8866C38.0385 44 41.0533 42.7667 43.2459 40.5741C45.4385 38.3815 46.6718 35.5037 46.6718 32.4889C46.6718 29.4741 45.4385 26.5963 43.2459 24.4037C41.0533 22.2111 38.0385 20.9778 34.8866 20.9778ZM10.7681 25.2259V18.3741C10.7681 16.0444 11.8644 13.7148 13.5088 12.0704C15.1533 10.4259 17.6199 9.46667 20.0866 9.46667C22.5533 9.46667 24.8829 10.4259 26.6644 12.0704C28.4459 13.7148 29.4051 15.9074 29.4051 18.3741V20.9778H20.0866C19.8125 20.9778 19.6755 20.9778 19.4014 20.9778H19.1273C18.9903 20.9778 18.8533 20.9778 18.7162 20.9778H18.4422C18.3051 20.9778 18.1681 20.9778 18.031 20.9778H17.757L17.3459 21.1148H17.0718C16.9348 21.1148 16.7977 21.1148 16.6607 21.2519H16.3866L16.2496 21.5259H15.9755C15.8385 21.5259 15.7014 21.663 15.4273 21.663H15.2903C15.2903 21.937 15.0162 21.937 14.8792 22.0741L14.7422 22.2111C14.6051 22.2111 14.4681 22.3481 14.331 22.3481L14.057 22.4852C13.9199 22.4852 13.7829 22.6222 13.7829 22.6222C13.6459 22.6222 13.6459 22.7593 13.5088 22.7593L13.2348 22.8963L12.9607 23.0333C12.8236 23.1704 12.8236 23.1704 12.6866 23.3074L12.5496 23.4444C12.4125 23.5815 12.4125 23.5815 12.2755 23.7185L12.1385 23.8556C12.0014 23.9926 11.8644 23.9926 11.8644 24.1296L11.7273 24.2667C11.5903 24.4037 11.4533 24.5407 11.3162 24.6778L11.1792 24.8148C10.9051 24.9519 10.9051 25.0889 10.7681 25.2259ZM10.7681 32.4889C10.7681 30.1593 11.7273 27.8296 13.5088 26.1852C15.1533 24.4037 17.6199 23.4444 20.0866 23.4444H29.4051V32.3519C29.4051 33.5852 29.131 34.6815 28.7199 35.7778C28.3088 36.8741 27.6236 37.8333 26.6644 38.7926C25.8422 39.6148 24.7459 40.3 23.6496 40.7111C22.5533 41.1222 21.3199 41.3963 20.0866 41.3963C18.8533 41.3963 17.6199 41.3963 16.5236 40.8481C15.4273 40.437 14.331 39.7519 13.5088 38.9296C12.6866 38.1074 12.0014 37.0111 11.4533 35.9148C10.9051 34.8185 10.631 33.5852 10.7681 32.4889ZM34.8866 41.3963H27.7607C27.8977 41.2593 28.0348 41.2593 28.0348 41.1222L28.1718 40.9852C28.3088 40.8481 28.4459 40.7111 28.5829 40.5741L28.7199 40.437C28.857 40.3 28.857 40.3 28.994 40.163L29.131 40.0259C29.2681 39.8889 29.2681 39.8889 29.4051 39.7519C29.5422 39.6148 29.5422 39.6148 29.5422 39.6148C29.5422 39.6148 29.6792 39.4778 29.8162 39.3407C29.9533 39.2037 29.9533 39.2037 29.9533 39.2037C29.9533 39.0667 30.0903 39.0667 30.2273 38.9296L30.3644 38.6556C30.3644 38.5185 30.5014 38.3815 30.5014 38.3815L30.6385 38.2444C30.7755 38.1074 30.7755 37.9704 30.7755 37.8333C30.7755 37.8333 30.7755 37.6963 30.9125 37.6963C31.0496 37.5593 31.0496 37.2852 31.1866 37.1481C31.1866 37.1481 31.1866 37.1481 31.1866 37.0111C31.1866 36.8741 31.3236 36.737 31.3236 36.6C31.3236 36.6 31.3236 36.463 31.4607 36.463C31.4607 36.3259 31.5977 36.1889 31.5977 36.0519C31.5977 35.9148 31.5977 35.9148 31.5977 35.7778C31.5977 35.6407 31.7348 35.5037 31.7348 35.3667C31.7348 35.2296 31.7348 35.2296 31.7348 35.0926C31.7348 34.9556 31.7348 34.8185 31.8718 34.6815C31.8718 34.5444 31.8718 34.5444 31.8718 34.4074C31.8718 34.2704 31.8718 34.1333 31.8718 33.9963C31.8718 33.8593 31.8718 33.8593 31.8718 33.7222C31.8718 33.5852 31.8718 33.4481 31.8718 33.3111C31.8718 33.1741 31.8718 33.1741 31.8718 33.037C31.8718 32.763 31.8718 32.6259 31.8718 32.3519V23.4444H34.6125C37.0792 23.4444 39.5459 24.4037 41.1903 26.0481C42.9718 27.6926 43.931 30.0222 43.931 32.3519C43.931 34.6815 42.9718 37.0111 41.1903 38.6556C39.6829 40.437 37.3533 41.3963 34.8866 41.3963Z" fill="white"/>
<path d="M77.6424 20.2925L74.4906 21.2518C74.3535 20.4296 73.9424 19.7444 73.2572 19.0592C72.5721 18.374 71.6128 18.0999 70.3795 18.0999C69.2832 18.0999 68.461 18.374 67.7758 18.9221C67.0906 19.4703 66.8166 20.1555 66.8166 20.9778C66.8166 22.3481 67.6389 23.3074 69.2833 23.7185L72.2981 24.4037C74.0796 24.8148 75.4498 25.5 76.5461 26.5963C77.5054 27.6926 78.0535 28.9259 78.0535 30.4333C78.0535 32.2148 77.3684 33.5852 75.998 34.9555C74.6276 36.1889 72.8463 36.8739 70.6537 36.8739C68.187 36.8739 66.2684 36.1889 64.898 34.9555C63.5276 33.7222 62.7054 32.2148 62.5684 30.4333L65.8574 29.4741C65.9944 30.7074 66.4055 31.6667 67.2278 32.4889C68.05 33.3111 69.1461 33.7222 70.5165 33.7222C71.7498 33.7222 72.7091 33.4481 73.2572 32.9C73.9424 32.3518 74.2165 31.6667 74.2165 30.8444C74.2165 30.1593 73.9424 29.6111 73.5313 29.063C72.9832 28.5148 72.298 28.2407 71.4758 27.9667L68.5981 27.2815C66.9537 26.8704 65.5832 26.1852 64.6239 25.2259C63.6647 24.2667 63.2535 22.8963 63.2535 21.3889C63.2535 19.6073 63.9387 18.0999 65.3091 16.8666C66.6795 15.6333 68.3239 14.9481 70.3795 14.9481C72.5721 14.9481 74.3537 15.4962 75.45 16.5925C76.5463 17.6888 77.3684 18.9221 77.6424 20.2925ZM87.3722 24.6778C86.2759 24.6778 85.3166 25.0889 84.6315 25.9111C83.8092 26.7333 83.535 27.8296 83.535 29.2C83.535 30.5704 83.9463 31.6667 84.6315 32.4889C85.4537 33.3111 86.4128 33.7222 87.5091 33.7222C88.4684 33.7222 89.2907 33.4481 89.8389 32.9C90.387 32.3518 90.798 31.6667 91.0721 30.9815L94.0869 32.0778C93.6758 33.3111 92.9906 34.4074 91.7572 35.3667C90.661 36.3259 89.1535 36.737 87.5091 36.737C85.4535 36.737 83.6721 36.0518 82.1647 34.5444C80.7943 33.037 80.1091 31.2555 80.1091 29.063C80.1091 26.8704 80.7943 25.0889 82.1647 23.5815C83.535 22.2111 85.3166 21.3889 87.3722 21.3889C89.1537 21.3889 90.661 21.8 91.7572 22.7593C92.8535 23.7185 93.6759 24.8148 93.95 26.0481L90.935 27.1444C90.798 26.4593 90.387 25.7741 89.8389 25.2259C89.1537 24.9518 88.3315 24.6778 87.3722 24.6778ZM105.598 21.937V25.363C105.187 25.363 104.776 25.2259 104.502 25.2259C101.898 25.2259 100.665 26.5963 100.665 29.4741V36.3259H97.1017V21.937H100.391V24.2667C100.665 23.4444 101.213 22.8963 102.035 22.4852C102.72 22.0741 103.68 21.8 104.502 21.8C104.913 21.8 105.324 21.8 105.598 21.937ZM107.654 32.3518C107.654 31.1185 108.065 30.1593 108.887 29.4741C109.709 28.7889 110.806 28.2407 112.039 28.1037L115.739 27.5555C116.424 27.4185 116.835 27.1444 116.835 26.4593C116.835 25.7741 116.561 25.2259 116.15 24.9518C115.739 24.5407 115.054 24.2667 114.094 24.2667C113.272 24.2667 112.587 24.5407 112.039 24.9518C111.491 25.363 111.217 26.0481 111.217 26.8704L107.928 26.1852C108.065 24.9518 108.75 23.8555 109.846 22.8963C110.943 21.937 112.313 21.5259 114.094 21.5259C116.15 21.5259 117.657 22.0741 118.754 23.0333C119.713 23.9926 120.261 25.363 120.261 26.8704V33.9963C120.261 34.9555 120.261 35.6407 120.398 36.3259H117.246C117.109 36.0518 117.109 35.3667 117.109 34.5444C116.15 36.0518 114.643 36.8739 112.724 36.8739C111.217 36.8739 110.12 36.463 109.161 35.6407C108.065 34.5444 107.654 33.5852 107.654 32.3518ZM113.135 33.9963C114.231 33.9963 115.054 33.7222 115.739 33.1741C116.424 32.6259 116.698 31.6667 116.698 30.2963V29.6111L112.998 30.2963C111.765 30.5704 111.079 31.1185 111.079 32.2148C111.079 32.763 111.217 33.1741 111.628 33.5852C112.039 33.8592 112.45 33.9963 113.135 33.9963ZM127.661 41.9444H124.235V21.937H127.524V23.8555C127.935 23.1704 128.483 22.6222 129.305 22.2111C130.128 21.8 131.087 21.5259 132.046 21.5259C134.102 21.5259 135.746 22.2111 136.842 23.5815C138.076 24.9518 138.624 26.7333 138.624 28.9259C138.624 31.1185 137.939 32.9 136.706 34.4074C135.472 35.7778 133.828 36.463 131.772 36.463C130.813 36.463 129.854 36.3259 129.169 35.9148C128.346 35.5037 127.798 35.0926 127.387 34.5444V41.9444H127.661ZM135.335 29.063C135.335 27.6926 134.924 26.5963 134.239 25.9111C133.554 25.0889 132.594 24.6778 131.498 24.6778C130.402 24.6778 129.442 25.0889 128.757 25.9111C128.072 26.7333 127.661 27.8296 127.661 29.063C127.661 30.4333 128.072 31.5296 128.757 32.3518C129.442 33.1741 130.402 33.5852 131.498 33.5852C132.594 33.5852 133.554 33.1741 134.239 32.3518C135.061 31.5296 135.335 30.4333 135.335 29.063ZM145.613 36.3259H142.187V21.937H145.613V36.3259ZM142.324 18.511C141.913 18.0999 141.639 17.5518 141.639 17.0036C141.639 16.4555 141.913 15.9073 142.324 15.4962C142.735 15.0851 143.283 14.811 143.831 14.811C144.517 14.811 144.928 15.0851 145.476 15.4962C145.887 15.9073 146.161 16.4555 146.161 17.1407C146.161 17.6888 145.887 18.237 145.476 18.6481C145.065 19.0592 144.517 19.3333 143.831 19.3333C143.283 19.1962 142.735 18.9221 142.324 18.511ZM153.561 27.9667V36.1889H150.135V21.937H153.424V23.8555C153.835 23.0333 154.52 22.4852 155.205 22.0741C156.028 21.663 156.85 21.5259 157.672 21.5259C159.316 21.5259 160.687 22.0741 161.509 23.1704C162.331 24.2667 162.879 25.637 162.879 27.2815V36.3259H159.454V27.8296C159.454 26.8704 159.179 26.0481 158.768 25.5C158.357 24.9518 157.535 24.6778 156.576 24.6778C155.617 24.6778 154.931 24.9518 154.383 25.637C153.698 26.1852 153.561 27.0074 153.561 27.9667ZM166.031 37.1481L169.183 36.3259C169.32 37.2852 169.731 37.9704 170.279 38.5185C170.965 39.0667 171.787 39.3407 172.746 39.3407C175.487 39.3407 176.857 37.9704 176.857 35.0926V33.5852C176.583 34.1333 176.035 34.6815 175.213 35.0926C174.528 35.5037 173.568 35.6407 172.609 35.6407C170.691 35.6407 169.046 34.9555 167.813 33.7222C166.579 32.3518 165.894 30.7074 165.894 28.6518C165.894 26.7333 166.579 25.0889 167.813 23.7185C169.046 22.3481 170.691 21.663 172.609 21.663C174.665 21.663 176.172 22.3481 176.857 23.7185V21.937H180.146V34.9555C180.146 37.0111 179.598 38.7926 178.365 40.163C177.131 41.5333 175.35 42.2185 172.746 42.2185C170.965 42.2185 169.32 41.6704 168.087 40.7111C166.991 39.8889 166.305 38.5185 166.031 37.1481ZM173.294 32.763C174.391 32.763 175.213 32.3518 175.898 31.6667C176.583 30.9815 176.994 29.8852 176.994 28.6518C176.994 27.4185 176.72 26.4593 175.898 25.7741C175.213 25.0889 174.391 24.6778 173.294 24.6778C172.198 24.6778 171.239 25.0889 170.554 25.7741C169.868 26.4593 169.457 27.4185 169.457 28.6518C169.457 29.8852 169.868 30.8444 170.554 31.6667C171.239 32.3518 172.198 32.763 173.294 32.763ZM184.805 15.3592H191.931C193.85 15.3592 195.494 15.9073 196.591 16.8666C197.687 17.9629 198.235 19.1962 198.235 20.9778C198.235 22.0741 197.961 23.0333 197.413 23.8555C196.865 24.6778 196.042 25.2259 195.22 25.5C196.317 25.7741 197.276 26.4593 197.961 27.2815C198.646 28.2407 199.057 29.2 199.057 30.4333C199.057 32.0778 198.509 33.4481 197.276 34.5444C196.042 35.6407 194.535 36.1889 192.617 36.1889H184.805V15.3592ZM188.368 24.2667H191.52C192.479 24.2667 193.302 23.9926 193.987 23.4444C194.535 22.8963 194.809 22.2111 194.809 21.3889C194.809 20.4296 194.535 19.7444 193.85 19.3333C193.302 18.7851 192.479 18.511 191.383 18.511H188.231V24.2667H188.368ZM188.368 33.3111H191.931C193.028 33.3111 193.85 33.037 194.398 32.4889C195.083 31.9407 195.357 31.2555 195.357 30.2963C195.357 29.337 195.083 28.6518 194.398 28.1037C193.85 27.5555 193.028 27.2815 191.931 27.2815H188.231V33.3111H188.368ZM205.087 27.5555H212.076C212.076 26.5963 211.665 25.9111 211.117 25.2259C210.568 24.6778 209.609 24.2667 208.513 24.2667C207.554 24.2667 206.731 24.5407 206.046 25.2259C205.498 25.9111 205.087 26.7333 205.087 27.5555ZM212.487 31.2555L215.365 32.2148C214.954 33.5852 214.131 34.6815 213.035 35.5037C211.939 36.3259 210.568 36.737 208.924 36.737C206.868 36.737 205.087 36.0518 203.717 34.6815C202.346 33.3111 201.661 31.3926 201.661 29.063C201.661 26.8704 202.346 25.0889 203.717 23.5815C205.087 22.2111 206.731 21.5259 208.65 21.5259C210.842 21.5259 212.624 22.2111 213.857 23.5815C215.091 24.9518 215.776 26.7333 215.776 29.063C215.776 29.6111 215.776 30.0222 215.639 30.1593H205.224C205.224 31.2555 205.635 32.0778 206.457 32.9C207.279 33.5852 208.102 33.9963 209.198 33.9963C210.705 33.8593 211.939 32.9 212.487 31.2555ZM221.257 27.5555H228.246C228.246 26.5963 227.835 25.9111 227.287 25.2259C226.739 24.6778 225.779 24.2667 224.683 24.2667C223.724 24.2667 222.902 24.5407 222.217 25.2259C221.668 25.9111 221.394 26.7333 221.257 27.5555ZM228.657 31.2555L231.535 32.2148C231.124 33.5852 230.302 34.6815 229.205 35.5037C228.109 36.3259 226.739 36.737 225.094 36.737C223.039 36.737 221.257 36.0518 219.887 34.6815C218.517 33.3111 217.831 31.3926 217.831 29.063C217.831 26.8704 218.517 25.0889 219.887 23.5815C221.257 22.2111 222.902 21.5259 224.82 21.5259C227.013 21.5259 228.794 22.2111 230.028 23.5815C231.261 24.9518 231.946 26.7333 231.946 29.063C231.946 29.6111 231.946 30.0222 231.809 30.1593H221.394C221.394 31.2555 221.805 32.0778 222.628 32.9C223.45 33.5852 224.272 33.9963 225.368 33.9963C227.013 33.8593 228.109 32.9 228.657 31.2555Z" fill="white"/>
</g>
</svg>
